<svg width="220" height="32" viewBox="0 0 220 32" fill="none" xmlns="http://www.w3.org/2000/svg">
<g clip-path="url(#clip0_326_4199)">
<path d="M66.042 1L63.67 27.575L53.007 30.531L42.37 27.58L40 1.001L66.042 1Z" fill="#F300C2"/>
<path d="M45 13L45.292 16.26H52.59V13H45Z" fill="#FFEFFC"/>
<path d="M53.174 6H45L45.3 9.25999H53.178L53.174 6Z" fill="#FFEFFC"/>
<path d="M53.148 24.972V21.58H53.134L49.504 20.6L49.272 18H46L46.457 23.118L53.134 24.972H53.148Z" fill="#FFEFFC"/>
<path d="M57.02 15.86L56.642 20.088L53.006 21.069V24.46L59.689 22.608L59.738 22.057L60.504 13.475L60.584 12.6L61.173 6H53.007V9.26001H57.6L57.3 12.598H53V15.858L57.02 15.86Z" fill="white"/>
<path d="M2.342 27.269L0 1H25.734L23.39 27.265L12.85 30.185L2.342 27.269Z" fill="#F300C2"/>
<path d="M21.516 25.444L23.516 3H13V27.8L21.516 25.444Z" fill="#F300C2"/>
<path d="M13.068 6H5L5.869 15.742H13.079V12.521H8.816L8.521 9.221H13.078V6H13.068ZM13.079 20.877H13.065L9.477 19.912L9.249 17.343H6.013L6.464 22.401L13.064 24.225H13.079V20.877Z" fill="#FFEFFC"/>
<path d="M13.002 15.743H16.969L16.604 19.92L13.014 20.89V24.242L19.614 22.412L20.499 12.521H13.014L13.002 15.743ZM20.995 6.865L21.072 6H13V9.222H20.782L20.846 8.498L20.995 6.865Z" fill="white"/>
<path d="M77 1H106.113V30.113H77V1Z" fill="#F300C2"/>
<path d="M85 25.1256L87.228 23.7776C87.658 24.5396 88.049 25.1846 88.987 25.1846C89.887 25.1846 90.453 24.8326 90.453 23.4656V14.1656H93.189V23.5066C93.189 26.3406 91.528 27.6296 89.105 27.6296C88.2491 27.6754 87.3994 27.4611 86.6676 27.0148C85.9358 26.5686 85.3562 25.9114 85.005 25.1296M94.679 24.8366L96.907 23.5466C97.155 24.0496 97.54 24.4723 98.0176 24.7662C98.4953 25.06 99.0462 25.213 99.607 25.2076C100.741 25.2076 101.464 24.6406 101.464 23.8586C101.464 22.9206 100.721 22.5886 99.471 22.0416L98.787 21.7486C96.813 20.9086 95.504 19.8486 95.504 17.6256C95.504 15.5736 97.067 14.0106 99.51 14.0106C100.302 13.9532 101.092 14.1302 101.784 14.5195C102.476 14.9088 103.037 15.4931 103.399 16.1996L101.269 17.5676C101.129 17.2168 100.886 16.9169 100.572 16.7074C100.258 16.4979 99.8875 16.3888 99.51 16.3946C99.3449 16.3763 99.1778 16.3927 99.0195 16.4429C98.8612 16.4931 98.7151 16.5758 98.5907 16.6858C98.4662 16.7958 98.3662 16.9307 98.297 17.0817C98.2279 17.2327 98.1911 17.3965 98.189 17.5626C98.189 18.3836 98.697 18.7156 99.87 19.2236L100.554 19.5166C102.88 20.5166 104.189 21.5296 104.189 23.8166C104.189 26.2796 102.254 27.6276 99.655 27.6276C98.6433 27.6919 97.6346 27.4623 96.7505 26.9664C95.8663 26.4705 95.1445 25.7294 94.672 24.8326" fill="white"/>
<path d="M145 1H151.751L134.877 30.113L118 1H130.911L134.877 7.751L138.759 1H145Z" fill="#F300C2"/>
<path d="M118 1L134.877 30.113L151.754 1H145L134.877 18.468L124.666 1H118Z" fill="#F300C2"/>
<path opacity="0.52" d="M125 1L135.211 18.552L145.34 1H139.092L135.211 7.751L131.24 1H125Z" fill="#FFEFFC"/>
</g>
<path d="M216.508 7.31688C214.855 5.17606 212.604 3.57358 210.04 2.71211C207.476 1.85065 204.714 1.76889 202.104 2.47718C199.493 3.18548 197.152 4.652 195.375 6.69129C193.598 8.73057 192.465 11.251 192.121 13.9338C191.777 16.6167 192.236 19.3414 193.44 21.7633C194.644 24.1853 196.54 26.1958 198.886 27.5404C201.233 28.8851 203.926 29.5036 206.625 29.3177C209.323 29.1317 211.906 28.1497 214.046 26.4959C216.916 24.2787 218.787 21.0128 219.248 17.4162C219.71 13.8196 218.725 10.1869 216.508 7.31688V7.31688Z" fill="#F300C2"/>
<path d="M210.405 10.645L204.639 16.457L203.01 14.782C208.685 9.10698 209.255 9.61998 210.41 10.645H210.405Z" fill="white"/>
<path d="M204.845 16.8227C204.794 16.8214 204.745 16.8011 204.708 16.7657L203.067 15.1257C203.03 15.0874 203.01 15.0363 203.01 14.9832C203.01 14.93 203.03 14.8789 203.067 14.8407C208.667 9.24067 209.426 9.50767 210.747 10.7037C210.769 10.7214 210.787 10.744 210.799 10.7696C210.811 10.7953 210.816 10.8234 210.815 10.8517C210.82 10.8792 210.817 10.9073 210.807 10.9332C210.797 10.9592 210.78 10.9821 210.758 10.9997L204.992 16.7657C204.952 16.8028 204.899 16.8231 204.844 16.8227H204.845ZM203.504 14.9887L204.849 16.3337L210.319 10.8637C210.13 10.6272 209.861 10.4686 209.563 10.4183C209.264 10.3679 208.957 10.4293 208.701 10.5907C207.704 11.0347 206.109 12.3907 203.504 14.9887Z" fill="#F300C2"/>
<path d="M206.583 18.307L205.01 16.7L210.776 11C212.326 12.516 210.024 15.046 206.583 18.3V18.307Z" fill="white"/>
<path d="M205.772 18.7866C205.721 18.7826 205.673 18.7626 205.635 18.7296L204.028 17.1566C204.004 17.0983 204.004 17.0329 204.028 16.9746C204.011 16.9267 204.011 16.8744 204.028 16.8266L209.794 11.0606C209.834 11.0217 209.888 11 209.944 11C210 11 210.054 11.0217 210.094 11.0606C210.281 11.2324 210.428 11.4425 210.527 11.6764C210.625 11.9104 210.672 12.1629 210.664 12.4166C210.664 13.9546 208.909 15.8926 205.924 18.7166C205.884 18.7559 205.832 18.7799 205.776 18.7846L205.772 18.7866ZM204.496 16.9706L205.784 18.2576C208.063 16.1036 210.24 13.8816 210.251 12.3776C210.262 12.0583 210.155 11.7461 209.951 11.5006L204.496 16.9706Z" fill="#F300C2"/>
<path d="M202.545 15.025L203.685 16.165C203.692 16.1714 203.698 16.1791 203.702 16.1877C203.705 16.1963 203.707 16.2056 203.707 16.215C203.707 16.2244 203.705 16.2337 203.702 16.2423C203.698 16.2509 203.692 16.2586 203.685 16.265L201.285 16.778C201.237 16.7884 201.186 16.7826 201.141 16.7616C201.096 16.7406 201.059 16.7055 201.036 16.6616C201.013 16.6176 201.005 16.5674 201.013 16.5183C201.021 16.4693 201.045 16.4243 201.08 16.39L202.48 15C202.505 15.0001 202.529 15.0081 202.548 15.023L202.545 15.025Z" fill="white"/>
<path d="M201.436 17.1996C201.36 17.1987 201.286 17.1782 201.22 17.1402C201.154 17.1022 201.099 17.048 201.06 16.9826C201.016 16.9 201.001 16.8053 201.015 16.7128C201.029 16.6203 201.073 16.535 201.14 16.4696L202.53 15.0696C202.581 15.0248 202.646 15 202.713 15C202.78 15 202.845 15.0248 202.895 15.0696L204.035 16.2096C204.069 16.2413 204.092 16.2814 204.104 16.3256C204.116 16.3699 204.116 16.4166 204.103 16.4606C204.09 16.5054 204.065 16.5459 204.031 16.5778C203.997 16.6098 203.955 16.6322 203.909 16.6426L201.509 17.1556L201.436 17.1996ZM202.708 15.4676L201.42 16.7556L203.551 16.2996L202.708 15.4676Z" fill="#F300C2"/>
<path d="M213.757 7.62077C213.46 7.33414 213.089 7.13624 212.686 7.04947C212.283 6.96269 211.863 6.99049 211.475 7.12972C211.086 7.26895 210.745 7.51406 210.488 7.83734C210.232 8.16061 210.071 8.54915 210.024 8.95902C209.977 9.3689 210.046 9.78375 210.222 10.1567C210.399 10.5296 210.676 10.8457 211.023 11.0693C211.369 11.2928 211.772 11.4149 212.184 11.4217C212.597 11.4285 213.003 11.3198 213.357 11.1078L211.81 9.55777L213.757 7.62077Z" fill="white"/>
<path d="M211.396 11.813C210.922 11.8066 210.46 11.6612 210.068 11.3948C209.676 11.1284 209.371 10.7527 209.191 10.3144C209.011 9.87615 208.964 9.3946 209.055 8.9296C209.146 8.46461 209.372 8.03667 209.705 7.69896C210.161 7.25099 210.775 7 211.414 7C212.053 7 212.667 7.25099 213.124 7.69896C213.145 7.71723 213.162 7.73993 213.174 7.76548C213.186 7.79104 213.192 7.81884 213.192 7.84696C213.191 7.87502 213.185 7.9027 213.173 7.9282C213.162 7.9537 213.145 7.97644 213.124 7.99496L211.278 9.73896L212.678 11.118C212.7 11.1396 212.717 11.1665 212.727 11.1964C212.737 11.2262 212.74 11.258 212.735 11.289C212.731 11.3188 212.721 11.3475 212.705 11.3731C212.69 11.3987 212.669 11.4205 212.644 11.437C212.267 11.6722 211.834 11.8021 211.391 11.813H211.396ZM211.396 7.39096C211.1 7.39338 210.808 7.46141 210.542 7.59015C210.275 7.71889 210.041 7.90513 209.855 8.13546C209.669 8.36578 209.537 8.63444 209.468 8.92207C209.398 9.20971 209.394 9.50915 209.454 9.79881C209.514 10.0885 209.638 10.3611 209.817 10.5971C209.995 10.8331 210.224 11.0266 210.486 11.1636C210.748 11.3006 211.037 11.3777 211.333 11.3893C211.629 11.401 211.923 11.3469 212.196 11.231L210.851 9.88596C210.829 9.86881 210.812 9.84711 210.8 9.82245C210.788 9.79779 210.782 9.7708 210.782 9.74346C210.782 9.71613 210.788 9.68914 210.8 9.66448C210.812 9.63982 210.829 9.61812 210.851 9.60096L212.624 7.81296C212.27 7.54201 211.838 7.39384 211.393 7.39096H211.396Z" fill="#F300C2"/>
<path d="M212.959 8L211.01 9.937L212.56 11.487C212.716 11.3975 212.861 11.2905 212.993 11.168C213.399 10.7386 213.623 10.1682 213.616 9.57713C213.61 8.98604 213.374 8.42054 212.959 8V8Z" fill="white"/>
<path d="M212.765 10.8839C212.739 10.8853 212.714 10.8809 212.69 10.8711C212.666 10.8612 212.645 10.8461 212.628 10.8269L211.078 9.27693C211.057 9.25978 211.039 9.23808 211.028 9.21342C211.016 9.18876 211.01 9.16177 211.01 9.13443C211.01 9.1071 211.016 9.08011 211.028 9.05545C211.039 9.03079 211.057 9.00909 211.078 8.99193L213.015 7.09193C213.034 7.06367 213.059 7.04048 213.089 7.02444C213.119 7.0084 213.152 7 213.186 7C213.22 7 213.253 7.0084 213.283 7.02444C213.313 7.04048 213.338 7.06367 213.357 7.09193C213.584 7.31475 213.765 7.58072 213.889 7.87426C214.012 8.16781 214.075 8.48302 214.075 8.80143C214.075 9.11985 214.012 9.43506 213.889 9.72861C213.765 10.0221 213.584 10.2881 213.357 10.5109C213.223 10.6534 213.069 10.7763 212.901 10.8759C212.859 10.8975 212.809 10.9018 212.764 10.8879L212.765 10.8839ZM211.512 9.12893L212.8 10.4169C212.889 10.3549 212.972 10.2864 213.051 10.2119C213.429 9.83459 213.643 9.32242 213.644 8.78793C213.645 8.30926 213.471 7.84676 213.154 7.48793L211.512 9.12893Z" fill="#F300C2"/>
<path d="M210.311 11.2259C210.156 11.0808 209.953 11 209.741 11C209.529 11 209.325 11.0808 209.171 11.2259L204.01 16.3799L204.865 17.2459L210.323 12.4599C210.406 12.3802 210.472 12.2842 210.517 12.1779C210.562 12.0716 210.584 11.9572 210.583 11.8418C210.582 11.7265 210.557 11.6126 210.511 11.5071C210.464 11.4017 210.396 11.307 210.311 11.2289V11.2259Z" fill="white"/>
<path d="M205.07 17.654C205.019 17.6528 204.97 17.6324 204.933 17.597L204.067 16.731C204.03 16.6928 204.01 16.6417 204.01 16.5885C204.01 16.5353 204.03 16.4842 204.067 16.446L209.229 11.306C209.378 11.1577 209.568 11.0575 209.774 11.0184C209.981 10.9792 210.194 11.0029 210.387 11.0864C210.58 11.1699 210.743 11.3094 210.855 11.4867C210.968 11.664 211.025 11.871 211.018 12.081C211.012 12.2235 210.978 12.3634 210.918 12.4925C210.857 12.6216 210.771 12.7374 210.665 12.833L205.207 17.619C205.167 17.6466 205.119 17.6587 205.07 17.653V17.654ZM204.47 16.582L205.04 17.163L210.391 12.503C210.457 12.4461 210.51 12.3762 210.548 12.2977C210.585 12.2192 210.606 12.1339 210.608 12.047C210.611 11.9598 210.595 11.873 210.562 11.7925C210.528 11.712 210.478 11.6395 210.414 11.58C210.295 11.461 210.133 11.3942 209.964 11.3942C209.796 11.3942 209.634 11.461 209.514 11.58L204.47 16.582Z" fill="#F300C2"/>
<path d="M199.811 22.014C199.796 22.0338 199.788 22.0578 199.788 22.0825C199.788 22.1072 199.796 22.1312 199.811 22.151L200.039 23.142C200.048 23.2005 200.039 23.2604 200.014 23.314C199.989 23.3675 199.948 23.4121 199.897 23.442C199.846 23.4717 199.787 23.4846 199.728 23.4786C199.67 23.4727 199.615 23.4483 199.571 23.409L198.01 21.909L202.877 17H204.564L205.704 18.14C203.926 19.6945 201.943 20.9983 199.812 22.015L199.811 22.014Z" fill="white"/>
<path d="M199.913 23.9058C199.849 23.9051 199.786 23.8917 199.727 23.8662C199.668 23.8408 199.615 23.804 199.571 23.7578L198.078 22.2648C198.057 22.2476 198.039 22.2259 198.028 22.2013C198.016 22.1766 198.01 22.1496 198.01 22.1223C198.01 22.0949 198.016 22.068 198.028 22.0433C198.039 22.0186 198.057 21.9969 198.078 21.9798L202.978 17.0688C203.005 17.04 203.04 17.0201 203.078 17.0118H204.778C204.822 16.9961 204.871 16.9961 204.915 17.0118L206.055 18.1518C206.077 18.1717 206.093 18.1966 206.103 18.2243C206.113 18.252 206.116 18.2816 206.112 18.3108C206.113 18.339 206.107 18.367 206.095 18.3927C206.083 18.4184 206.066 18.441 206.044 18.4588L205.953 18.5388C204.168 20.0269 202.204 21.2863 200.107 22.2878L200.324 23.2108C200.34 23.2817 200.34 23.3554 200.325 23.4264C200.309 23.4974 200.277 23.5641 200.233 23.6215C200.188 23.6789 200.131 23.7257 200.066 23.7584C200.001 23.7912 199.93 23.809 199.857 23.8108L199.913 23.9058ZM198.523 22.1168L199.867 23.4728C199.872 23.4799 199.878 23.4858 199.886 23.4903C199.893 23.4948 199.901 23.4976 199.91 23.4987C199.918 23.4997 199.927 23.499 199.935 23.4964C199.943 23.4939 199.951 23.4896 199.957 23.4839C199.964 23.4783 199.969 23.4713 199.973 23.4634C199.976 23.4556 199.978 23.4471 199.978 23.4385C199.978 23.4299 199.976 23.4213 199.973 23.4135C199.969 23.4056 199.964 23.3985 199.958 23.3928L199.73 22.4018C199.712 22.3306 199.719 22.2553 199.75 22.1887C199.781 22.1222 199.835 22.0685 199.901 22.0368C201.943 21.0487 203.857 19.8163 205.601 18.3668L204.666 17.4318H203.137L198.523 22.1168Z" fill="#F300C2"/>
<path d="M197.115 23.14L198.255 22L200.01 23.753L197.218 23.559C197.17 23.5548 197.125 23.5357 197.089 23.5044C197.052 23.4731 197.027 23.4312 197.016 23.3846C197.005 23.338 197.009 23.2891 197.027 23.2448C197.045 23.2006 197.077 23.1632 197.118 23.138L197.115 23.14Z" fill="white"/>
<path d="M200.183 24.1206L197.402 23.9266C197.321 23.9183 197.245 23.8878 197.18 23.8385C197.116 23.7893 197.066 23.7232 197.037 23.6476C197.009 23.5716 197.002 23.4892 197.018 23.4097C197.034 23.3302 197.072 23.2567 197.128 23.1976L198.268 22.0576C198.306 22.0207 198.357 22 198.41 22C198.464 22 198.515 22.0207 198.553 22.0576L200.295 23.8006C200.319 23.8337 200.332 23.8736 200.332 23.9146C200.332 23.9556 200.319 23.9955 200.295 24.0286C200.269 24.0712 200.228 24.1034 200.181 24.1196L200.183 24.1206ZM197.402 23.4826L199.681 23.6306L198.428 22.4566L197.402 23.4826Z" fill="#F300C2"/>
<path d="M205.31 16.969L203.01 17.322L204.343 16L205.31 16.969Z" fill="white"/>
<path d="M203.229 17.7366C203.191 17.7369 203.154 17.7263 203.122 17.7061C203.089 17.6859 203.064 17.6569 203.047 17.6226C203.023 17.5896 203.01 17.5496 203.01 17.5086C203.01 17.4675 203.023 17.4276 203.047 17.3946L204.371 16.0606C204.412 16.0217 204.465 16 204.521 16C204.577 16 204.631 16.0217 204.671 16.0606L205.64 17.0286C205.66 17.0593 205.67 17.0948 205.67 17.1311C205.67 17.1674 205.66 17.2029 205.64 17.2336C205.631 17.2709 205.611 17.3048 205.583 17.331C205.554 17.3573 205.519 17.3749 205.481 17.3816L203.202 17.7346L203.229 17.7366ZM204.562 16.4946L203.821 17.2356L205.097 17.0416L204.562 16.4946Z" fill="#F300C2"/>
<path d="M204.868 16.969L203.261 17.174C203.218 17.184 203.173 17.1798 203.132 17.1621C203.092 17.1443 203.058 17.114 203.036 17.0755C203.015 17.037 203.006 16.9925 203.011 16.9486C203.017 16.9047 203.037 16.8638 203.067 16.832L203.899 16L204.868 16.969Z" fill="white"/>
<path d="M203.427 17.7441C203.352 17.7434 203.279 17.723 203.215 17.6849C203.151 17.6468 203.098 17.5923 203.062 17.5271C203.018 17.4492 203.001 17.3592 203.014 17.2707C203.026 17.1823 203.067 17.1003 203.13 17.0371L203.962 16.2051C204.002 16.1663 204.056 16.1445 204.112 16.1445C204.168 16.1445 204.222 16.1663 204.262 16.2051L205.231 17.1741C205.26 17.2014 205.28 17.2364 205.289 17.2749C205.298 17.3135 205.296 17.3538 205.283 17.3912C205.27 17.4285 205.246 17.4612 205.215 17.4854C205.183 17.5095 205.145 17.524 205.106 17.5271L203.506 17.7321L203.427 17.7441ZM203.427 17.3221L204.635 17.1741L204.1 16.6391L203.416 17.3231L203.427 17.3221ZM213.341 9.08312C213.319 9.04716 213.285 9.02036 213.245 9.00782C213.205 8.99529 213.162 8.99788 213.124 9.01512C213.105 9.02473 213.088 9.03799 213.075 9.05413C213.061 9.07028 213.051 9.08898 213.045 9.10912C213.039 9.12934 213.036 9.15061 213.038 9.17172C213.04 9.19283 213.046 9.21335 213.056 9.23212C213.095 9.31447 213.11 9.40611 213.1 9.49674C213.09 9.58736 213.055 9.67339 212.999 9.74512C212.985 9.75918 212.973 9.77604 212.966 9.79463C212.959 9.81321 212.955 9.83313 212.956 9.85312C212.956 9.8932 212.972 9.93168 212.999 9.96112C213.028 9.97265 213.061 9.97265 213.09 9.96112C213.116 9.96766 213.144 9.96683 213.17 9.95872C213.196 9.95061 213.22 9.93554 213.238 9.91512C213.331 9.8 213.39 9.66078 213.408 9.51356C213.426 9.36634 213.401 9.21711 213.338 9.08312H213.341Z" fill="#F300C2"/>
<path d="M170.028 0L170.882 1.6C171.068 1.88902 171.284 2.15722 171.527 2.4C172.244 3.10946 172.912 3.86651 173.527 4.666C174.936 6.55945 175.992 8.69066 176.647 10.958C177.066 12.3434 177.289 13.7807 177.309 15.228C177.373 17.2837 177.016 19.3308 176.259 21.2432C175.503 23.1556 174.362 24.8929 172.909 26.348C172.423 26.8372 171.898 27.286 171.339 27.69C171.039 27.69 170.903 27.463 170.781 27.254C170.559 26.8664 170.411 26.4408 170.345 25.999C170.229 25.4788 170.182 24.9455 170.205 24.413V24.169C170.185 24.123 169.928 0.123 170.028 0Z" fill="#F300C2"/>
<path d="M170.079 0.034403C170.044 -0.035597 170.009 0.017403 169.979 0.051403C169.984 0.395219 169.879 0.731619 169.679 1.0114C169.454 1.29642 169.197 1.55388 168.912 1.7784C167.382 3.12812 166.112 4.74686 165.165 6.5544C163.897 8.97366 163.161 11.6357 163.005 14.3624C163.017 16.2155 163.227 18.062 163.632 19.8704C164.499 22.4918 166.002 24.8573 168.007 26.7554C168.5 27.2243 169.017 27.6666 169.557 28.0804C169.714 28.0804 169.731 27.9404 169.767 27.8364C169.836 27.6139 169.888 27.3866 169.924 27.1564L170.274 24.5424L170.079 0.034403Z" fill="#F300C2"/>
<path d="M171.372 28.792C171.429 28.4074 171.579 28.0425 171.808 27.729C171.603 27.632 171.432 27.4738 171.32 27.276C171.215 27.0933 171.128 26.9007 171.06 26.701C170.853 25.9681 170.73 25.2139 170.694 24.453V24C170.617 24.2422 170.583 24.4961 170.594 24.75C170.543 25.5406 170.438 26.3267 170.28 27.103C170.257 27.4224 170.162 27.7324 170 28.009C169.999 28.0504 170.004 28.0917 170.017 28.131C170.298 29.047 170.45 29.9973 170.47 30.955V31.305C170.47 31.723 170.453 31.635 170.8 31.775C170.954 31.8102 171.101 31.8689 171.236 31.949C171.336 31.949 171.358 31.862 171.358 31.792L171.306 31.217V29.617C171.303 29.342 171.326 29.0674 171.376 28.797L171.372 28.792Z" fill="#F300C2"/>
<path opacity="0.34" d="M170.023 0L170.877 1.6C171.063 1.88902 171.279 2.15722 171.522 2.4C172.239 3.10946 172.907 3.86651 173.522 4.666C174.931 6.55945 175.987 8.69066 176.642 10.958C177.061 12.3434 177.284 13.7807 177.304 15.228C177.368 17.2837 177.011 19.3308 176.254 21.2432C175.498 23.1556 174.357 24.8929 172.904 26.348C172.418 26.8372 171.893 27.286 171.334 27.69C171.034 27.69 170.898 27.463 170.776 27.254C170.554 26.8664 170.406 26.4408 170.34 25.999C170.224 25.4788 170.177 24.9455 170.2 24.413V24.169C170.18 24.123 169.923 0.123 170.023 0Z" fill="#FFEFFC"/>
<defs>
<clipPath id="clip0_326_4199">
<rect width="152.005" height="29.531" fill="white" transform="translate(0 1.20898)"/>
</clipPath>
</defs>
</svg>
