<svg xmlns="http://www.w3.org/2000/svg" xmlns:xlink="http://www.w3.org/1999/xlink" viewBox="0,0,256,256" width="30px" height="30px"><g fill="#f300c2" fill-rule="nonzero" stroke="none" stroke-width="1" stroke-linecap="butt" stroke-linejoin="miter" stroke-miterlimit="10" stroke-dasharray="" stroke-dashoffset="0" font-family="none" font-weight="none" font-size="none" text-anchor="none" style="mix-blend-mode: normal"><g transform="scale(8.53333,8.53333)"><path d="M15,3c-0.13457,0.00082 -0.26871,0.01521 -0.40039,0.04297l-0.00195,-0.00195l-9.96875,1.99414l-0.00195,0.00195c-0.94311,0.17905 -1.62599,1.00293 -1.62695,1.96289v16c0.00021,0.9613 0.68429,1.78648 1.62891,1.96484l9.96875,1.99414c0.13238,0.02723 0.26719,0.04097 0.40234,0.04102c1.10457,0 2,-0.89543 2,-2v-20c0,-1.10457 -0.89543,-2 -2,-2zM19,6v2v2v2c1.03409,0 1.94693,-0.52235 2.48633,-1.31836c0.76569,0.43989 1.39474,1.06982 1.83398,1.83594c-0.82463,0.55724 -1.31923,1.48717 -1.32031,2.48242c0.00044,0.99595 0.49511,1.92675 1.32031,2.48438c-0.43921,0.76545 -1.06879,1.39438 -1.83398,1.83398c-0.5394,-0.79601 -1.45223,-1.31836 -2.48633,-1.31836v2v2v2c1.54408,0 2.80068,-1.17018 2.9668,-2.66992c1.47104,-0.69363 2.66112,-1.88202 3.35742,-3.35156c1.52091,-0.16534 2.67379,-1.44864 2.67578,-2.97852c-0.00111,-1.53129 -1.15531,-2.81598 -2.67773,-2.98047c-0.69646,-1.46846 -1.88522,-2.65635 -3.35547,-3.34961c-0.16612,-1.49974 -1.42272,-2.66992 -2.9668,-2.66992zM10.43555,9.99805c1.376,0 2.08506,0.24509 2.41406,0.37109v2.01758c-0.162,-0.112 -1.03797,-0.67383 -2.29297,-0.67383c-1.547,0 -1.625,0.82756 -1.625,0.97656c0,1.62 4.34375,1.23073 4.34375,4.42773c0,1.732 -1.19089,2.88477 -3.83789,2.88477c-1.503,0 -2.40781,-0.35906 -2.75781,-0.53906v-2.1582c0.391,0.328 1.26606,0.98242 2.66406,0.98242c0.274,0 1.63672,-0.03856 1.63672,-0.97656c0,-1.695 -4.34375,-1.28445 -4.34375,-4.43945c0,-1.322 0.82483,-2.87305 3.79883,-2.87305z"></path></g></g></svg>